<svg xmlns="http://www.w3.org/2000/svg" width="1080" height="1080" viewBox="0 0 1080 1080" role="img" aria-labelledby="title desc">
  <title id="title">RI Spa logo</title>
  <desc id="desc">Logo RI Spa con una tinaja de madera y agua verde.</desc>
  <defs>
    <linearGradient id="wood" x1="220" y1="260" x2="850" y2="900" gradientUnits="userSpaceOnUse">
      <stop offset="0" stop-color="#d89445"/>
      <stop offset=".45" stop-color="#9d5428"/>
      <stop offset="1" stop-color="#623019"/>
    </linearGradient>
    <linearGradient id="water" x1="300" y1="210" x2="780" y2="410" gradientUnits="userSpaceOnUse">
      <stop offset="0" stop-color="#9df6ec"/>
      <stop offset=".55" stop-color="#16a096"/>
      <stop offset="1" stop-color="#0e5f58"/>
    </linearGradient>
    <radialGradient id="glow" cx="50%" cy="42%" r="52%">
      <stop offset="0" stop-color="#f6d59b" stop-opacity=".28"/>
      <stop offset="1" stop-color="#130d0a" stop-opacity="0"/>
    </radialGradient>
    <filter id="shadow" x="-20%" y="-20%" width="140%" height="150%">
      <feDropShadow dx="0" dy="28" stdDeviation="24" flood-color="#000000" flood-opacity=".35"/>
    </filter>
  </defs>
  <rect width="1080" height="1080" rx="220" fill="#130d0a"/>
  <circle cx="540" cy="500" r="400" fill="url(#glow)"/>
  <g filter="url(#shadow)">
    <ellipse cx="540" cy="330" rx="300" ry="118" fill="#2e1711"/>
    <ellipse cx="540" cy="314" rx="262" ry="91" fill="url(#water)"/>
    <ellipse cx="540" cy="315" rx="164" ry="43" fill="#bffdf6" opacity=".58"/>
    <path d="M237 334c22 237 78 401 184 491h238c106-90 162-254 184-491-72 88-534 88-606 0Z" fill="url(#wood)"/>
    <path d="M286 450c94 52 414 52 508 0l-21 102c-98 48-368 48-466 0l-21-102Z" fill="#b87335" opacity=".82"/>
    <path d="M300 680h480" stroke="#211814" stroke-width="42" stroke-linecap="round" opacity=".9"/>
    <path d="M366 455v310M452 484v328M540 494v330M628 484v328M714 455v310" stroke="#f6d59b" stroke-width="19" stroke-linecap="round" opacity=".42"/>
    <path d="M262 334c94 76 462 76 556 0" fill="none" stroke="#f6d59b" stroke-width="18" stroke-linecap="round" opacity=".35"/>
  </g>
  <text x="540" y="940" text-anchor="middle" fill="#f6d59b" font-family="Inter, Arial, sans-serif" font-size="116" font-weight="900" letter-spacing="0">RI Spa</text>
</svg>
